<?xml version="1.0" standalone="no"?>
<!DOCTYPE svg PUBLIC "-//W3C//DTD SVG 20010904//EN"
 "http://www.w3.org/TR/2001/REC-SVG-20010904/DTD/svg10.dtd">
<svg version="1.0" xmlns="http://www.w3.org/2000/svg"
 width="500.000000pt" height="500.000000pt" viewBox="0 0 500.000000 500.000000"
 preserveAspectRatio="xMidYMid meet">

<g transform="translate(0.000000,500.000000) scale(0.100000,-0.100000)"
fill="#000000" stroke="none">
<path d="M760 2500 l0 -480 1740 0 1740 0 0 480 0 480 -1740 0 -1740 0 0 -480z
m3450 0 l0 -450 -1715 0 -1715 0 0 450 0 450 1715 0 1715 0 0 -450z"/>
<path d="M850 2500 l0 -390 825 0 825 0 0 390 0 390 -825 0 -825 0 0 -390z
m570 31 c0 -106 -1 -110 -26 -130 -32 -25 -94 -29 -94 -6 0 10 10 15 29 15 52
0 61 20 61 131 0 81 3 99 15 99 12 0 15 -19 15 -109z m264 -8 c27 -65 51 -124
53 -130 11 -27 -27 -11 -42 17 -15 28 -19 30 -78 30 -60 0 -63 -1 -74 -30 -6
-17 -19 -30 -28 -30 -20 0 -23 -10 42 148 32 80 51 112 62 112 12 0 31 -34 65
-117z m233 20 l68 -98 3 98 c2 77 6 97 17 97 12 0 15 -23 15 -130 0 -103 -3
-130 -14 -130 -7 0 -45 46 -85 101 l-71 102 0 -102 c0 -83 -3 -101 -15 -101
-13 0 -15 21 -15 130 0 107 3 130 15 130 7 0 45 -44 82 -97z"/>
<path d="M1591 2528 c-12 -28 -19 -53 -17 -55 2 -2 24 -3 49 -1 l44 3 -20 53
c-11 28 -23 52 -27 52 -4 0 -17 -23 -29 -52z"/>
<path d="M3225 2643 c-58 -15 -95 -66 -95 -132 0 -84 52 -133 141 -133 87 0
143 59 136 145 -8 88 -91 143 -182 120z m93 -90 c27 -37 5 -101 -36 -104 -33
-3 -47 2 -64 23 -25 28 -22 55 8 84 19 20 31 24 52 19 15 -3 33 -13 40 -22z"/>
<path d="M3484 2636 c-34 -15 -44 -33 -44 -75 0 -35 26 -59 82 -75 25 -8 44
-20 46 -30 5 -23 -26 -31 -47 -12 -10 9 -32 16 -50 16 -27 0 -32 -3 -29 -21 5
-35 51 -62 103 -61 55 0 92 22 101 59 11 42 -14 74 -76 98 -32 12 -55 27 -55
35 0 21 44 25 51 6 9 -24 74 -22 74 2 0 51 -95 86 -156 58z"/>
<path d="M3724 2636 c-34 -15 -44 -33 -44 -75 0 -35 26 -59 82 -75 25 -8 44
-20 46 -30 5 -23 -26 -31 -47 -12 -10 9 -32 16 -50 16 -27 0 -32 -3 -29 -21 5
-35 51 -62 103 -61 55 0 92 22 101 59 11 42 -14 74 -76 98 -32 12 -55 27 -55
35 0 21 44 25 51 6 9 -24 74 -22 74 2 0 51 -95 86 -156 58z"/>
<path d="M2870 2510 l0 -130 40 0 c39 0 40 1 40 35 0 22 5 35 13 35 7 0 21
-16 30 -35 15 -31 21 -35 57 -35 22 0 40 2 40 5 0 3 -9 23 -19 43 -19 37 -19
38 0 61 19 23 25 74 13 106 -12 29 -60 45 -139 45 l-75 0 0 -130z m139 56 c16
-19 4 -43 -25 -50 -34 -9 -44 0 -44 35 0 25 4 29 29 29 16 0 34 -6 40 -14z"/>
</g>
</svg>
